<?xml version="1.0" encoding="utf-8"?>
<!DOCTYPE svg PUBLIC "-//W3C//DTD SVG 1.1//EN" "http://www.w3.org/Graphics/SVG/1.1/DTD/svg11.dtd">
<svg version="1.1" xmlns="http://www.w3.org/2000/svg" xmlns:xlink="http://www.w3.org/1999/xlink" x="0px"
	 y="0px" width="32px" height="32px" viewBox="0 0 32 32" enable-background="new 0 0 32 32" xml:space="preserve">
<path d="M24.006,31.998c-0.266,0-0.52-0.105-0.707-0.293l-3-3c-0.384-0.397-0.373-1.03,0.024-1.414c0.388-0.374,1.002-0.374,1.39,0
	l2.157,2.157l6.315-9.023c0.321-0.449,0.945-0.554,1.395-0.233c0.444,0.316,0.553,0.93,0.244,1.38l-7,10
	c-0.168,0.243-0.436,0.399-0.731,0.427C24.064,32,24.035,32,24.006,31.998z"/>
<path d="M25.999,4.002H6.002c-3.4,0-5.999,2.599-5.999,5.999V22c0,3.399,2.599,5.998,5.999,5.998h9.517c1.104,0,1.999-0.896,1.999-2
	c0-1.104-0.896-1.999-1.999-1.999H6.002c-1.2,0-2-0.801-2-1.999V9.601c0,0.201,0.2,0.201,0.4,0.201l10.999,8
	C15.6,18,15.801,18,16,18s0.4,0,0.6-0.199l10.999-8c0.2,0,0.2-0.201,0.2-0.399c0.2,0.199,0.2,0.399,0.2,0.599v5.793
	c0,1.104,0.895,2,2,2c1.104,0,1.999-0.896,1.999-2v-5.793C31.998,6.601,29.398,4.002,25.999,4.002z M26.399,8.202L16,15.8
	L5.602,8.202H5.403c0.199-0.2,0.399-0.2,0.599-0.2h19.997c0.2,0,0.4,0,0.6,0.2H26.399z"/>
</svg>
