<?xml version="1.0" encoding="utf-8"?>
<!DOCTYPE svg PUBLIC "-//W3C//DTD SVG 1.1//EN" "http://www.w3.org/Graphics/SVG/1.1/DTD/svg11.dtd">
<svg version="1.1" xmlns="http://www.w3.org/2000/svg" xmlns:xlink="http://www.w3.org/1999/xlink" x="0px"
	 y="0px" width="32px" height="32px" viewBox="0 0 32 32" enable-background="new 0 0 32 32" xml:space="preserve">
<path d="M20.64,31.998c-0.376,0-0.737-0.15-1.004-0.417l-4.263-4.263c-0.545-0.565-0.531-1.465,0.034-2.01
	c0.551-0.532,1.424-0.532,1.975,0l3.065,3.065l8.975-12.823c0.457-0.638,1.343-0.786,1.981-0.331
	c0.631,0.45,0.785,1.321,0.348,1.961l-9.948,14.209c-0.237,0.346-0.619,0.568-1.039,0.607C20.725,32,20.682,32,20.64,31.998z"/>
<path d="M22.125,4.002H5.108c-2.893,0-5.105,2.212-5.105,5.105v10.211c0,2.893,2.212,5.104,5.105,5.104h8.099
	c0.939,0,1.701-0.763,1.701-1.702s-0.762-1.701-1.701-1.701H5.108c-1.021,0-1.702-0.682-1.702-1.701V8.766
	c0,0.171,0.17,0.171,0.34,0.171l9.36,6.808c0.169,0.169,0.34,0.169,0.51,0.169s0.341,0,0.51-0.169l9.359-6.808
	c0.171,0,0.171-0.171,0.171-0.34c0.17,0.169,0.17,0.34,0.17,0.51v6.568c0,0.94,0.762,1.702,1.702,1.702
	c0.939,0,1.701-0.762,1.701-1.702V9.107C27.23,6.214,25.019,4.002,22.125,4.002z M22.466,7.576l-8.849,6.467l-8.85-6.467H4.598
	c0.169-0.17,0.34-0.17,0.51-0.17h17.017c0.171,0,0.341,0,0.511,0.17H22.466z"/>
</svg>
